<svg id="SvgjsSvg1039" width="288" height="288" xmlns="http://www.w3.org/2000/svg" version="1.1" xmlns:xlink="http://www.w3.org/1999/xlink" xmlns:svgjs="http://svgjs.com/svgjs"><defs id="SvgjsDefs1040"></defs><g id="SvgjsG1041"><svg xmlns="http://www.w3.org/2000/svg" viewBox="0 0 64 64" width="288" height="288"><path fill="rgba(255, 255, 255, .4)" d="M34.55,60.08l.63-2.2A4,4,0,0,1,39,55,18,18,0,0,0,57,37h5L53,25,44,37h5v1.5a6.5,6.5,0,0,1-13,0V10H28V38.5a6.5,6.5,0,0,1-13,0V37h5L11,25,2,37H7A18,18,0,0,0,25,55a4,4,0,0,1,3.82,2.88l.63,2.2A2.65,2.65,0,0,0,34.55,60.08Z" class="color8bc4ff svgShape"></path><circle cx="32" cy="10" r="8" fill="rgba(255, 255, 255, .4)" class="colord1e7ff svgShape"></circle><path fill="#1164C0" d="M63.6,35.8l-9-12a2.07,2.07,0,0,0-3.2,0l-9,12A2,2,0,0,0,44,39h3a4.5,4.5,0,0,1-9-.5V26h4a2,2,0,0,0,0-4H38V18c7.69-5.76,3.54-18-6-18S18.31,12.23,26,18v4H22a2,2,0,0,0,0,4h4V38.5a4.5,4.5,0,0,1-9,.5h3a2,2,0,0,0,1.6-3.2l-9-12a2.07,2.07,0,0,0-3.2,0l-9,12A2,2,0,0,0,2,39H5.1A20,20,0,0,0,25,57a2,2,0,0,1,1.9,1.43l.63,2.2a4.65,4.65,0,0,0,8.94,0l.63-2.2A2,2,0,0,1,39,57,20,20,0,0,0,58.9,39H62A2,2,0,0,0,63.6,35.8ZM32,4a6,6,0,1,1-6,6A6,6,0,0,1,32,4ZM57,35a2,2,0,0,0-2,2A16,16,0,0,1,39,53a6,6,0,0,0-5.75,4.34C32.56,59.79,32.62,60,32,60s-.61-.34-1.27-2.67A6,6,0,0,0,25,53,16,16,0,0,1,9,37a2,2,0,0,0-2-2H6l5-6.67L16,35H15a2,2,0,0,0-2,2v1.5a8.5,8.5,0,0,0,17,0V19.8a10,10,0,0,0,4,0V38.5a8.5,8.5,0,0,0,17,0V37a2,2,0,0,0-2-2H48l5-6.67L58,35Z" class="color2e58ff svgShape"></path><circle cx="32" cy="10" r="2" fill="#1164C0" class="color2e58ff svgShape"></circle></svg></g></svg>